{"title":"KICK (2014) Hindi 720p DVDSCR Rip x264 By -=BGood577=-","uid":10641365,"size":1375403639,"categoryP":"porn","categoryS":"other","magnet":"?xt=urn:btih:ec0e2f6bbc4365e95ddba1e41e8db9631dc2aa96&amp;dn=KICK+%282014%29+Hindi+720p+DVDSCR+Rip+x264+By+-%3DBGood577%3D-&amp;tr=udp%3A%2F%2Ftracker.openbittorrent.com%3A80&amp;tr=udp%3A%2F%2Fopen.demonii.com%3A1337&amp;tr=udp%3A%2F%2Ftracker.coppersurfer.tk%3A6969&amp;tr=udp%3A%2F%2Fexodus.desync.com%3A6969","seeders":1,"leechers":0,"uploader":null,"files":2,"time":1406459884,"description":"General:\nComplete name : KICK (2014) Hindi 720p DVDSCR Rip x264 By -=BGood577=-\nFormat : MPEG-4\nFormat profile : QuickTime\nCodec ID : qt\nFile size : 1.26 GiB\nDuration : 2h 25mn\nOverall bit rate : 1 240 Kbps\nWriting application : Lavf52.0.0\n\nVideo:\nID : 1\nFormat : MPEG-4 Visual\nFormat profile : Simple@L1\nFormat settings, BVOP : No\nFormat settings, QPel : No\nFormat settings, GMC : No warppoints\nFormat settings, Matrix : Default (H.263)\nCodec ID : 20\nDuration : 2h 25mn\nBit rate mode : Variable\nBit rate : 1 173 Kbps\nWidth : 656 pixels\nHeight : 272 pixels\nDisplay aspect ratio : 2.40:1\nFrame rate mode : Constant\nFrame rate : 23.976 fps\nColor space : YUV\nChroma subsampling : 4:2:0\nBit depth : 8 bits\nScan type : Progressive\nCompression mode : Lossy\nBits/(Pixel*Frame) : 0.274\nStream size : 1.20 GiB (95%)\nWriting library : Lavc52.48.0\nLanguage : Hindi\nAudio:\nID : 2\nFormat : AAC\nFormat/Info : Advanced Audio Codec\nFormat version : Version 4\nFormat profile : LC\nCodec ID : 40\nDuration : 2h 25mn\nBit rate mode : Variable\nBit rate : 64.0 Kbps\nChannel(s) : 2 channels\nChannel positions : Front: L R\nSampling rate : 32.0 KHz\nCompression mode : Lossy\nStream size : 66.8 MiB (5%)\nLanguage : Hindi\n\nScreen:\n\n  &lt;a href=&quot;\nhttp://imgfun.biz/x/img-53d4c12251e91.html&quot; rel=&quot;nofollow&quot; target=&quot;_NEW&quot;&gt;\nhttp://imgfun.biz/x/img-53d4c12251e91.html&lt;/a&gt;\n\n  &lt;a href=&quot;\nhttp://imgfun.biz/x/img-53d4c19570814.html&quot; rel=&quot;nofollow&quot; target=&quot;_NEW&quot;&gt;\nhttp://imgfun.biz/x/img-53d4c19570814.html&lt;/a&gt;\n\n  &lt;a href=&quot;\nhttp://imgfun.biz/x/img-53d4c1b0524ed.html&quot; rel=&quot;nofollow&quot; target=&quot;_NEW&quot;&gt;\nhttp://imgfun.biz/x/img-53d4c1b0524ed.html&lt;/a&gt;\n\t\t","torrent":{"xt":"urn:btih:ec0e2f6bbc4365e95ddba1e41e8db9631dc2aa96","amp;dn":"KICK+%282014%29+Hindi+720p+DVDSCR+Rip+x264+By+-%3DBGood577%3D-","amp;tr":["udp%3A%2F%2Ftracker.openbittorrent.com%3A80","udp%3A%2F%2Fopen.demonii.com%3A1337","udp%3A%2F%2Ftracker.coppersurfer.tk%3A6969","udp%3A%2F%2Fexodus.desync.com%3A6969"],"infoHash":"ec0e2f6bbc4365e95ddba1e41e8db9631dc2aa96","infoHashBuffer":{"type":"Buffer","data":[236,14,47,107,188,67,101,233,93,219,161,228,30,141,185,99,29,194,170,150]},"announce":[],"urlList":[]}}